Kai Po Che (2013)

 
http://www.shotpix.com/images/68646290437346798614.jpg



[B]INFO[/B]

[CODE]General
Format : AVI
Format/Info : Audio Video Interleave
File size : 695 MiB
Duration : 1h 52mn
Overall bit rate : 864 Kbps

Video
ID : 0
Format : MPEG-4 Visual
Format profile : Advanced Simple@L5
Format settings, BVOP : 2
Format settings, QPel : No
Format settings, GMC : No warppoints
Format settings, Matrix : Default (H.263)
Codec ID : XVID
Codec ID/Hint : XviD
Duration : 1h 52mn
Bit rate : 810 Kbps
Width : 624 pixels
Height : 272 pixels
Display aspect ratio : 2.25:1
Frame rate : 23.976 fps
Color space : YUV
Chroma subsampling : 4:2:0
Bit depth : 8 bits
Scan type : Progressive
Compression mode : Lossy
Bits/(Pixel*Frame) : 0.199
Stream size : 652 MiB (94%)
Writing library : XviD 1.2.1 (UTC 2008-12-04)

Audio
ID : 1
Format : MPEG Audio
Format version : Version 2
Format profile : Layer 3
Mode : Joint stereo
Mode extension : MS Stereo
Codec ID : 55
Codec ID/Hint : MP3
Duration : 1h 52mn
Bit rate mode : Constant
Bit rate : 48.0 Kbps
Channel(s) : 2 channels
Sampling rate : 22.05 KHz
Compression mode : Lossy
Stream size : 38.6 MiB (6%)
Alignment : Aligned on interleaves
Interleave, duration : 167 ms (4.00 video frames)
Interleave, preload duration : 209 ms
Title : audio
Writing library : LAME3.99.5UUUUUULAME[/CODE]



[B]SCREEN SHOTS[/B]
 
http://www.shotpix.com/images/74719342592336431191.png
 
http://www.shotpix.com/images/92498187181628729564.png
 
http://www.shotpix.com/images/36460858067882791704.png
 
http://www.shotpix.com/images/57152185127361467732.png
 
http://www.shotpix.com/images/89748789533544046318.png
 
http://www.shotpix.com/images/35906653035955141962.png
 
http://www.shotpix.com/images/88088301670200161247.png
 
http://www.shotpix.com/images/02045668804276969531.png
 
http://www.shotpix.com/images/47032468646554231936.png